<svg width="307" height="255" viewBox="0 0 307 255" fill="none" xmlns="http://www.w3.org/2000/svg">
<path d="M137.322 115.583V117.599H132.09V132.215H129.762V117.599H124.53V115.583H137.322ZM149.339 125.975C149.339 126.967 149.195 127.863 148.907 128.663C148.619 129.463 148.211 130.151 147.683 130.727C147.171 131.303 146.555 131.751 145.835 132.071C145.115 132.375 144.331 132.527 143.483 132.527C142.635 132.527 141.851 132.375 141.131 132.071C140.411 131.751 139.787 131.303 139.259 130.727C138.747 130.151 138.347 129.463 138.059 128.663C137.771 127.863 137.627 126.967 137.627 125.975C137.627 124.999 137.771 124.111 138.059 123.311C138.347 122.495 138.747 121.799 139.259 121.223C139.787 120.647 140.411 120.207 141.131 119.903C141.851 119.583 142.635 119.423 143.483 119.423C144.331 119.423 145.115 119.583 145.835 119.903C146.555 120.207 147.171 120.647 147.683 121.223C148.211 121.799 148.619 122.495 148.907 123.311C149.195 124.111 149.339 124.999 149.339 125.975ZM147.011 125.975C147.011 124.567 146.691 123.455 146.051 122.639C145.427 121.807 144.571 121.391 143.483 121.391C142.395 121.391 141.531 121.807 140.891 122.639C140.267 123.455 139.955 124.567 139.955 125.975C139.955 127.383 140.267 128.503 140.891 129.335C141.531 130.151 142.395 130.559 143.483 130.559C144.571 130.559 145.427 130.151 146.051 129.335C146.691 128.503 147.011 127.383 147.011 125.975ZM154.568 119.735H159.296V121.607H154.568V127.367C154.568 127.991 154.616 128.511 154.712 128.927C154.808 129.327 154.952 129.647 155.144 129.887C155.336 130.111 155.576 130.271 155.864 130.367C156.152 130.463 156.488 130.511 156.872 130.511C157.544 130.511 158.08 130.439 158.48 130.295C158.896 130.135 159.184 130.023 159.344 129.959L159.776 131.807C159.552 131.919 159.16 132.055 158.6 132.215C158.04 132.391 157.4 132.479 156.68 132.479C155.832 132.479 155.128 132.375 154.568 132.167C154.024 131.943 153.584 131.615 153.248 131.183C152.912 130.751 152.672 130.223 152.528 129.599C152.4 128.959 152.336 128.223 152.336 127.391V116.255L154.568 115.871V119.735ZM166.36 130.607C166.888 130.607 167.352 130.599 167.752 130.583C168.168 130.551 168.512 130.503 168.784 130.439V126.719C168.624 126.639 168.36 126.575 167.992 126.527C167.64 126.463 167.208 126.431 166.696 126.431C166.36 126.431 166 126.455 165.616 126.503C165.248 126.551 164.904 126.655 164.584 126.815C164.28 126.959 164.024 127.167 163.816 127.439C163.608 127.695 163.504 128.039 163.504 128.471C163.504 129.271 163.76 129.831 164.272 130.151C164.784 130.455 165.48 130.607 166.36 130.607ZM166.168 119.423C167.064 119.423 167.816 119.543 168.424 119.783C169.048 120.007 169.544 120.335 169.912 120.767C170.296 121.183 170.568 121.687 170.728 122.279C170.888 122.855 170.968 123.495 170.968 124.199V131.999C170.776 132.031 170.504 132.079 170.152 132.143C169.816 132.191 169.432 132.239 169 132.287C168.568 132.335 168.096 132.375 167.584 132.407C167.088 132.455 166.592 132.479 166.096 132.479C165.392 132.479 164.744 132.407 164.152 132.263C163.56 132.119 163.048 131.895 162.616 131.591C162.184 131.271 161.848 130.855 161.608 130.343C161.368 129.831 161.248 129.215 161.248 128.495C161.248 127.807 161.384 127.215 161.656 126.719C161.944 126.223 162.328 125.823 162.808 125.519C163.288 125.215 163.848 124.991 164.488 124.847C165.128 124.703 165.8 124.631 166.504 124.631C166.728 124.631 166.96 124.647 167.2 124.679C167.44 124.695 167.664 124.727 167.872 124.775C168.096 124.807 168.288 124.839 168.448 124.871C168.608 124.903 168.72 124.927 168.784 124.943V124.319C168.784 123.951 168.744 123.591 168.664 123.239C168.584 122.871 168.44 122.551 168.232 122.279C168.024 121.991 167.736 121.767 167.368 121.607C167.016 121.431 166.552 121.343 165.976 121.343C165.24 121.343 164.592 121.399 164.032 121.511C163.488 121.607 163.08 121.711 162.808 121.823L162.544 119.975C162.832 119.847 163.312 119.727 163.984 119.615C164.656 119.487 165.384 119.423 166.168 119.423ZM178.419 132.455C177.043 132.423 176.067 132.127 175.491 131.567C174.915 131.007 174.627 130.135 174.627 128.951V113.975L176.859 113.591V128.591C176.859 128.959 176.891 129.263 176.955 129.503C177.019 129.743 177.123 129.935 177.267 130.079C177.411 130.223 177.603 130.335 177.843 130.415C178.083 130.479 178.379 130.535 178.731 130.583L178.419 132.455Z" fill="black"/>
<path d="M152.731 18.2148C167.673 18.2148 182.455 21.2867 196.159 27.2395C209.863 33.1924 222.197 41.8991 232.395 52.8191C242.593 63.7391 250.437 76.639 255.44 90.7179C260.443 104.797 262.497 119.754 261.477 134.66C260.456 149.567 256.382 164.104 249.507 177.37C242.632 190.635 233.103 202.346 221.512 211.774C209.921 221.202 196.515 228.147 182.128 232.176C167.74 236.206 152.677 237.234 137.875 235.198L140.367 217.084C152.686 218.779 165.222 217.923 177.197 214.57C189.171 211.216 200.328 205.436 209.975 197.59C219.621 189.743 227.552 179.997 233.274 168.957C238.995 157.916 242.386 145.817 243.236 133.411C244.085 121.005 242.375 108.557 238.211 96.84C234.047 85.1228 227.519 74.3867 219.032 65.2984C210.545 56.2102 200.28 48.9639 188.874 44.0096C177.469 39.0553 165.166 36.4988 152.731 36.4988V18.2148Z" fill="#2D86E7"/>
<path d="M137.318 235.12C110.139 231.237 85.4259 217.241 68.118 195.929C50.8102 174.616 42.1828 147.557 43.9601 120.159C45.7373 92.7613 57.7883 67.0434 77.7046 48.1454C97.6208 29.2474 123.935 18.5614 151.388 18.2231L151.614 36.5057C128.766 36.7872 106.865 45.6807 90.2898 61.4087C73.7143 77.1367 63.6848 98.5406 62.2056 121.343C60.7265 144.144 67.9067 166.665 82.3113 184.402C96.7159 202.14 117.284 213.788 139.904 217.019L137.318 235.12Z" fill="#56CCF2"/>
<path d="M0.731445 6.21484C0.731445 2.90114 3.41774 0.214844 6.73145 0.214844H80.7314C84.0452 0.214844 86.7314 2.90114 86.7314 6.21484V36.2148H6.73144C3.41773 36.2148 0.731445 33.5286 0.731445 30.2148V6.21484Z" fill="#56CCF2"/>
<path d="M15.6166 18.1268C15.1526 18.1268 14.7046 18.1668 14.2726 18.2468C13.8406 18.3268 13.4486 18.4468 13.0966 18.6068C13.0806 18.7348 13.0646 18.8788 13.0486 19.0388C13.0486 19.1828 13.0486 19.3268 13.0486 19.4708C13.0486 20.1108 13.0886 20.7188 13.1686 21.2948C13.2646 21.8548 13.4166 22.3508 13.6246 22.7828C13.8486 23.1988 14.1446 23.5348 14.5126 23.7908C14.8966 24.0308 15.3686 24.1508 15.9286 24.1508C16.3926 24.1508 16.7846 24.0548 17.1046 23.8628C17.4406 23.6708 17.7126 23.4228 17.9206 23.1188C18.1286 22.8148 18.2806 22.4868 18.3766 22.1348C18.4726 21.7668 18.5206 21.4148 18.5206 21.0788C18.5206 20.1188 18.2886 19.3908 17.8246 18.8948C17.3606 18.3828 16.6246 18.1268 15.6166 18.1268ZM15.9766 15.8228C16.9686 15.8228 17.8086 15.9668 18.4966 16.2548C19.2006 16.5268 19.7686 16.9028 20.2006 17.3828C20.6326 17.8628 20.9446 18.4228 21.1366 19.0628C21.3446 19.6868 21.4486 20.3428 21.4486 21.0308C21.4486 21.6548 21.3366 22.2948 21.1126 22.9508C20.9046 23.6068 20.5686 24.2068 20.1046 24.7508C19.6566 25.2788 19.0886 25.7188 18.4006 26.0708C17.7126 26.4068 16.8966 26.5748 15.9526 26.5748C14.0486 26.5748 12.5926 25.9508 11.5846 24.7028C10.5926 23.4388 10.0966 21.7028 10.0966 19.4948C10.0966 17.8948 10.3286 16.4788 10.7926 15.2468C11.2726 13.9988 11.9446 12.9508 12.8086 12.1028C13.6886 11.2548 14.7446 10.6148 15.9766 10.1828C17.2246 9.73484 18.6246 9.50284 20.1766 9.48684L20.3446 11.8868C19.4806 11.9028 18.6726 11.9988 17.9206 12.1748C17.1686 12.3348 16.4966 12.5908 15.9046 12.9428C15.3126 13.2948 14.8006 13.7508 14.3686 14.3108C13.9526 14.8708 13.6326 15.5588 13.4086 16.3748C14.1926 16.0068 15.0486 15.8228 15.9766 15.8228ZM34.9693 21.7508C34.9693 22.4388 34.8493 23.0788 34.6093 23.6708C34.3693 24.2628 34.0093 24.7748 33.5293 25.2068C33.0493 25.6388 32.4493 25.9748 31.7293 26.2148C31.0253 26.4548 30.2093 26.5748 29.2813 26.5748C28.1933 26.5748 27.2893 26.4228 26.5693 26.1188C25.8493 25.8148 25.2733 25.4308 24.8413 24.9668C24.4093 24.5028 24.0973 24.0068 23.9053 23.4788C23.7293 22.9348 23.6413 22.4228 23.6413 21.9428C23.6413 21.4628 23.7053 21.0228 23.8333 20.6228C23.9773 20.2068 24.1693 19.8308 24.4093 19.4948C24.6493 19.1428 24.9213 18.8228 25.2253 18.5348C25.5293 18.2468 25.8493 17.9908 26.1853 17.7668C25.4493 17.2548 24.8973 16.7028 24.5293 16.1108C24.1773 15.5028 24.0013 14.7668 24.0013 13.9028C24.0013 13.2788 24.1213 12.6868 24.3613 12.1268C24.6173 11.5508 24.9773 11.0468 25.4413 10.6148C25.9053 10.1828 26.4653 9.83884 27.1213 9.58284C27.7773 9.32684 28.5053 9.19884 29.3053 9.19884C30.2493 9.19884 31.0493 9.33484 31.7053 9.60684C32.3773 9.87884 32.9213 10.2308 33.3373 10.6628C33.7693 11.0948 34.0813 11.5748 34.2733 12.1028C34.4653 12.6308 34.5613 13.1428 34.5613 13.6388C34.5613 14.5188 34.3213 15.3028 33.8413 15.9908C33.3613 16.6628 32.8093 17.1988 32.1853 17.5988C33.1293 18.1108 33.8253 18.7028 34.2733 19.3748C34.7373 20.0468 34.9693 20.8388 34.9693 21.7508ZM26.4973 21.8948C26.4973 22.1348 26.5453 22.3908 26.6413 22.6628C26.7373 22.9348 26.8973 23.1828 27.1213 23.4068C27.3453 23.6308 27.6333 23.8228 27.9853 23.9828C28.3373 24.1268 28.7773 24.1988 29.3053 24.1988C29.7853 24.1988 30.2013 24.1348 30.5533 24.0068C30.9053 23.8788 31.1933 23.7108 31.4173 23.5028C31.6413 23.2788 31.8093 23.0308 31.9213 22.7588C32.0333 22.4708 32.0893 22.1828 32.0893 21.8948C32.0893 21.4468 32.0013 21.0548 31.8253 20.7188C31.6493 20.3828 31.3933 20.0948 31.0573 19.8548C30.7373 19.5988 30.3533 19.3828 29.9053 19.2068C29.4573 19.0148 28.9613 18.8468 28.4173 18.7028C27.8413 19.0708 27.3773 19.5188 27.0253 20.0468C26.6733 20.5588 26.4973 21.1748 26.4973 21.8948ZM31.7293 13.6868C31.7293 13.4788 31.6813 13.2548 31.5853 13.0148C31.5053 12.7588 31.3613 12.5268 31.1533 12.3188C30.9613 12.1108 30.7133 11.9348 30.4093 11.7908C30.1053 11.6468 29.7373 11.5748 29.3053 11.5748C28.8733 11.5748 28.4973 11.6468 28.1773 11.7908C27.8733 11.9188 27.6253 12.0948 27.4333 12.3188C27.2413 12.5268 27.0973 12.7588 27.0013 13.0148C26.9053 13.2548 26.8573 13.4948 26.8573 13.7348C26.8573 14.3428 27.0813 14.9188 27.5293 15.4628C27.9933 16.0068 28.7613 16.4388 29.8333 16.7588C30.4253 16.3908 30.8893 15.9748 31.2253 15.5108C31.5613 15.0308 31.7293 14.4228 31.7293 13.6868ZM40.9779 23.0228C41.0099 23.2948 41.0259 23.4948 41.0259 23.6228C41.0259 23.7508 41.0259 23.8788 41.0259 24.0068C41.0259 24.9988 40.8659 26.0228 40.5459 27.0788C40.2419 28.1348 39.8099 29.1348 39.2499 30.0788L36.9699 29.4548C37.3539 28.5268 37.6099 27.6148 37.7379 26.7188C37.8819 25.8388 37.9539 25.0628 37.9539 24.3908C37.9539 24.1988 37.9459 23.9588 37.9299 23.6708C37.9299 23.3828 37.9219 23.1668 37.9059 23.0228H40.9779ZM49.4398 17.5988C49.9038 17.5988 50.3598 17.5588 50.8078 17.4788C51.2558 17.3828 51.6398 17.2468 51.9598 17.0708C51.9758 16.8948 51.9838 16.7428 51.9838 16.6148C51.9838 16.4868 51.9838 16.3748 51.9838 16.2788C51.9838 15.6388 51.9358 15.0388 51.8398 14.4788C51.7598 13.9028 51.6078 13.4068 51.3838 12.9908C51.1758 12.5588 50.8798 12.2228 50.4958 11.9828C50.1278 11.7268 49.6638 11.5988 49.1038 11.5988C48.6398 11.5988 48.2398 11.6948 47.9038 11.8868C47.5838 12.0788 47.3198 12.3268 47.1118 12.6308C46.9038 12.9348 46.7518 13.2628 46.6558 13.6148C46.5598 13.9668 46.5118 14.3108 46.5118 14.6468C46.5118 15.6228 46.7438 16.3588 47.2078 16.8548C47.6878 17.3508 48.4318 17.5988 49.4398 17.5988ZM51.7198 19.3508C51.3358 19.5268 50.9118 19.6628 50.4478 19.7588C49.9838 19.8548 49.5358 19.9028 49.1038 19.9028C48.1118 19.9028 47.2638 19.7748 46.5598 19.5188C45.8718 19.2468 45.3038 18.8788 44.8558 18.4148C44.4238 17.9348 44.1038 17.3828 43.8958 16.7588C43.6878 16.1348 43.5838 15.4628 43.5838 14.7428C43.5838 14.1188 43.6878 13.4868 43.8958 12.8468C44.1038 12.1908 44.4318 11.5908 44.8798 11.0468C45.3278 10.5028 45.8958 10.0628 46.5838 9.72684C47.2718 9.37484 48.0878 9.19884 49.0318 9.19884C50.9838 9.19884 52.4558 9.83084 53.4478 11.0948C54.4558 12.3428 54.9598 14.1108 54.9598 16.3988C54.9598 19.6308 54.1278 22.0788 52.4638 23.7428C50.7998 25.4068 48.2478 26.2468 44.8078 26.2628L44.6878 23.8388C45.6478 23.8388 46.5118 23.7588 47.2798 23.5988C48.0638 23.4388 48.7438 23.1828 49.3198 22.8308C49.9118 22.4788 50.4078 22.0228 50.8078 21.4628C51.2078 20.8868 51.5118 20.1828 51.7198 19.3508ZM65.3844 13.7588C65.3844 15.2148 65.0084 16.3348 64.2564 17.1188C63.5204 17.9028 62.5524 18.2948 61.3524 18.2948C60.7604 18.2948 60.2164 18.1988 59.7204 18.0068C59.2244 17.7988 58.8004 17.5028 58.4484 17.1188C58.0964 16.7348 57.8164 16.2628 57.6084 15.7028C57.4164 15.1268 57.3204 14.4788 57.3204 13.7588C57.3204 12.2868 57.6884 11.1668 58.4244 10.3988C59.1764 9.61484 60.1524 9.22284 61.3524 9.22284C62.5524 9.22284 63.5204 9.61484 64.2564 10.3988C65.0084 11.1668 65.3844 12.2868 65.3844 13.7588ZM63.1044 13.7588C63.1044 12.9108 62.9444 12.2788 62.6244 11.8628C62.3204 11.4308 61.8964 11.2148 61.3524 11.2148C60.8084 11.2148 60.3844 11.4308 60.0804 11.8628C59.7764 12.2788 59.6244 12.9108 59.6244 13.7588C59.6244 14.6068 59.7764 15.2468 60.0804 15.6788C60.3844 16.0948 60.8084 16.3028 61.3524 16.3028C61.8964 16.3028 62.3204 16.0948 62.6244 15.6788C62.9444 15.2468 63.1044 14.6068 63.1044 13.7588ZM70.2564 9.58284H73.0164L63.6324 26.2148H60.8724L70.2564 9.58284ZM76.5924 22.0628C76.5924 23.5188 76.2164 24.6388 75.4644 25.4228C74.7284 26.2068 73.7604 26.5988 72.5604 26.5988C71.9684 26.5988 71.4244 26.4948 70.9284 26.2868C70.4324 26.0948 70.0084 25.8068 69.6564 25.4228C69.3044 25.0388 69.0244 24.5668 68.8164 24.0068C68.6244 23.4308 68.5284 22.7828 68.5284 22.0628C68.5284 20.5908 68.8964 19.4708 69.6324 18.7028C70.3844 17.9188 71.3604 17.5268 72.5604 17.5268C73.7604 17.5268 74.7284 17.9188 75.4644 18.7028C76.2164 19.4708 76.5924 20.5908 76.5924 22.0628ZM74.3124 22.0628C74.3124 21.2148 74.1524 20.5828 73.8324 20.1668C73.5284 19.7348 73.1044 19.5188 72.5604 19.5188C72.0164 19.5188 71.5924 19.7348 71.2884 20.1668C70.9844 20.5828 70.8324 21.2148 70.8324 22.0628C70.8324 22.9108 70.9844 23.5508 71.2884 23.9828C71.5924 24.3988 72.0164 24.6068 72.5604 24.6068C73.1044 24.6068 73.5284 24.3988 73.8324 23.9828C74.1524 23.5508 74.3124 22.9108 74.3124 22.0628Z" fill="white"/>
<path d="M306.731 248.215C306.731 251.529 304.045 254.215 300.731 254.215H222.731C219.418 254.215 216.731 251.529 216.731 248.215V218.215H300.731C304.045 218.215 306.731 220.901 306.731 224.215V248.215Z" fill="#2D86E7"/>
<path d="M232.513 244.575C232.081 244.575 231.633 244.543 231.169 244.479C230.721 244.431 230.289 244.359 229.873 244.263C229.473 244.183 229.105 244.095 228.769 243.999C228.433 243.887 228.177 243.783 228.001 243.687L228.577 241.215C228.913 241.375 229.401 241.559 230.041 241.767C230.681 241.959 231.473 242.055 232.417 242.055C233.681 242.055 234.593 241.815 235.153 241.335C235.713 240.839 235.993 240.183 235.993 239.367C235.993 238.839 235.881 238.399 235.657 238.047C235.449 237.695 235.153 237.415 234.769 237.207C234.401 236.983 233.969 236.831 233.473 236.751C232.993 236.655 232.481 236.607 231.937 236.607H230.953V234.255H232.153C232.521 234.255 232.889 234.223 233.257 234.159C233.641 234.079 233.985 233.951 234.289 233.775C234.593 233.583 234.841 233.335 235.033 233.031C235.225 232.727 235.321 232.335 235.321 231.855C235.321 231.471 235.249 231.143 235.105 230.871C234.961 230.599 234.769 230.375 234.529 230.199C234.305 230.023 234.041 229.895 233.737 229.815C233.433 229.735 233.113 229.695 232.777 229.695C232.057 229.695 231.417 229.807 230.857 230.031C230.297 230.239 229.801 230.479 229.369 230.751L228.313 228.591C228.537 228.447 228.809 228.295 229.129 228.135C229.449 227.975 229.801 227.823 230.185 227.679C230.585 227.535 231.009 227.423 231.457 227.343C231.905 227.247 232.377 227.199 232.873 227.199C233.801 227.199 234.601 227.311 235.273 227.535C235.945 227.759 236.497 228.079 236.929 228.495C237.377 228.895 237.705 229.375 237.913 229.935C238.137 230.479 238.249 231.079 238.249 231.735C238.249 232.503 238.033 233.191 237.601 233.799C237.185 234.407 236.641 234.871 235.969 235.191C236.833 235.495 237.545 235.999 238.105 236.703C238.681 237.407 238.969 238.311 238.969 239.415C238.969 240.151 238.841 240.839 238.585 241.479C238.329 242.103 237.937 242.647 237.409 243.111C236.881 243.559 236.209 243.919 235.393 244.191C234.593 244.447 233.633 244.575 232.513 244.575ZM242.649 231.039C243.577 230.671 244.505 230.199 245.433 229.623C246.377 229.047 247.209 228.367 247.929 227.583H249.969V244.215H247.065V231.471C246.633 231.807 246.089 232.135 245.433 232.455C244.777 232.775 244.145 233.039 243.537 233.247L242.649 231.039ZM258.978 241.023C259.01 241.295 259.026 241.495 259.026 241.623C259.026 241.751 259.026 241.879 259.026 242.007C259.026 242.999 258.866 244.023 258.546 245.079C258.242 246.135 257.81 247.135 257.25 248.079L254.97 247.455C255.354 246.527 255.61 245.615 255.738 244.719C255.882 243.839 255.954 243.063 255.954 242.391C255.954 242.199 255.946 241.959 255.93 241.671C255.93 241.383 255.922 241.167 255.906 241.023H258.978ZM262.712 231.039C263.64 230.671 264.568 230.199 265.496 229.623C266.44 229.047 267.272 228.367 267.992 227.583H270.032V244.215H267.128V231.471C266.696 231.807 266.152 232.135 265.496 232.455C264.84 232.775 264.208 233.039 263.6 233.247L262.712 231.039ZM283.384 231.759C283.384 233.215 283.008 234.335 282.256 235.119C281.52 235.903 280.552 236.295 279.352 236.295C278.76 236.295 278.216 236.199 277.72 236.007C277.224 235.799 276.8 235.503 276.448 235.119C276.096 234.735 275.816 234.263 275.608 233.703C275.416 233.127 275.32 232.479 275.32 231.759C275.32 230.287 275.688 229.167 276.424 228.399C277.176 227.615 278.152 227.223 279.352 227.223C280.552 227.223 281.52 227.615 282.256 228.399C283.008 229.167 283.384 230.287 283.384 231.759ZM281.104 231.759C281.104 230.911 280.944 230.279 280.624 229.863C280.32 229.431 279.896 229.215 279.352 229.215C278.808 229.215 278.384 229.431 278.08 229.863C277.776 230.279 277.624 230.911 277.624 231.759C277.624 232.607 277.776 233.247 278.08 233.679C278.384 234.095 278.808 234.303 279.352 234.303C279.896 234.303 280.32 234.095 280.624 233.679C280.944 233.247 281.104 232.607 281.104 231.759ZM288.256 227.583H291.016L281.632 244.215H278.872L288.256 227.583ZM294.592 240.063C294.592 241.519 294.216 242.639 293.464 243.423C292.728 244.207 291.76 244.599 290.56 244.599C289.968 244.599 289.424 244.495 288.928 244.287C288.432 244.095 288.008 243.807 287.656 243.423C287.304 243.039 287.024 242.567 286.816 242.007C286.624 241.431 286.528 240.783 286.528 240.063C286.528 238.591 286.896 237.471 287.632 236.703C288.384 235.919 289.36 235.527 290.56 235.527C291.76 235.527 292.728 235.919 293.464 236.703C294.216 237.471 294.592 238.591 294.592 240.063ZM292.312 240.063C292.312 239.215 292.152 238.583 291.832 238.167C291.528 237.735 291.104 237.519 290.56 237.519C290.016 237.519 289.592 237.735 289.288 238.167C288.984 238.583 288.832 239.215 288.832 240.063C288.832 240.911 288.984 241.551 289.288 241.983C289.592 242.399 290.016 242.607 290.56 242.607C291.104 242.607 291.528 242.399 291.832 241.983C292.152 241.551 292.312 240.911 292.312 240.063Z" fill="white"/>
</svg>
